# xmcd CD database file
#
# Track frame offsets:
#	150
#	42327
#	74882
#	109192
#	137012
#	161905
#	199396
#
# Disc length: 3124 seconds
#
# Revision: 0
# Processed by: cddbd v1.5.2PL0 Copyright (c) Steve Scherf et al.
# Submitted via: CDex 1.51
#
DISCID=700c3207
DTITLE=Jean-Benoît Culot Quintet - Live au Petit Opportun
DYEAR=1996
DGENRE=Jazz
TTITLE0=Ghana
TTITLE1=Les grenouilles
TTITLE2=Capuccin swing
TTITLE3=Twice around
TTITLE4=Du côté de chez M
TTITLE5=Francisco
TTITLE6=Boy what a night
EXTD=YEAR: 1996
EXTT0=
EXTT1=
EXTT2=
EXTT3=
EXTT4=
EXTT5=
EXTT6=
PLAYORDER=
